<?xml version="1.0" standalone="no"?><svg xmlns="http://www.w3.org/2000/svg" viewBox="0 0 1440 320"><path fill="#000b76" fill-opacity="1" d="M0,160L36.9,160L73.8,96L110.8,320L147.7,288L184.6,32L221.5,64L258.5,32L295.4,256L332.3,256L369.2,160L406.2,0L443.1,288L480,64L516.9,32L553.8,224L590.8,64L627.7,256L664.6,0L701.5,224L738.5,192L775.4,128L812.3,288L849.2,64L886.2,192L923.1,224L960,192L996.9,64L1033.8,0L1070.8,160L1107.7,224L1144.6,192L1181.5,160L1218.5,96L1255.4,256L1292.3,320L1329.2,256L1366.2,0L1403.1,224L1440,160L1440,320L1403.1,320L1366.2,320L1329.2,320L1292.3,320L1255.4,320L1218.5,320L1181.5,320L1144.6,320L1107.7,320L1070.8,320L1033.8,320L996.9,320L960,320L923.1,320L886.2,320L849.2,320L812.3,320L775.4,320L738.5,320L701.5,320L664.6,320L627.7,320L590.8,320L553.8,320L516.9,320L480,320L443.1,320L406.2,320L369.2,320L332.3,320L295.4,320L258.5,320L221.5,320L184.6,320L147.7,320L110.8,320L73.8,320L36.9,320L0,320Z"></path></svg>